name Walk9.mot
datacolumns 19
datarows 27
range 2.16800000 2.19400000
endheader

                time	   L_ground_force_vx	   L_ground_force_vy	   L_ground_force_vz	   L_ground_force_px	   L_ground_force_py	   L_ground_force_pz	   R_ground_force_vx	   R_ground_force_vy	   R_ground_force_vz	   R_ground_force_px	   R_ground_force_py	   R_ground_force_pz	   L_ground_torque_x	   L_ground_torque_y	   L_ground_torque_z	   R_ground_torque_x	   R_ground_torque_y	   R_ground_torque_z	
          2.16800000	         -0.00000000	         -0.00000001	          0.00000000	          0.00000000	          0.00000000	          0.00000000	         -1.24723944	         -5.66277464	         -0.14699272	          0.00303353	          0.00000000	          0.00028272	          0.00000000	         -0.00000000	          0.00000000	          0.00000000	          0.27776597	          0.00000000	
          2.16900000	         -0.00000000	         -0.00000001	          0.00000000	          0.00000000	          0.00000000	          0.00000000	         -1.23288140	         -5.59812588	         -0.15936208	          0.00075654	          0.00000000	         -0.00003802	          0.00000000	         -0.00000000	          0.00000000	          0.00000000	          0.27637840	          0.00000000	
          2.17000000	         -0.00000000	         -0.00000001	          0.00000000	          0.00000000	          0.00000000	          0.00000000	         -1.21508538	         -5.51781981	         -0.17007756	         -0.00132972	          0.00000000	         -0.00033135	          0.00000000	         -0.00000000	          0.00000000	          0.00000000	          0.27406443	          0.00000000	
          2.17100000	         -0.00000000	         -0.00000001	          0.00000000	          0.00000000	          0.00000000	          0.00000000	         -1.19421091	         -5.42349114	         -0.17923927	         -0.00323357	          0.00000000	         -0.00059849	          0.00000000	         -0.00000000	          0.00000000	          0.00000000	          0.27091159	          0.00000000	
          2.17200000	         -0.00000000	         -0.00000000	          0.00000000	          0.00000000	          0.00000000	          0.00000000	         -1.17059864	         -5.31668857	         -0.18694472	         -0.00496332	          0.00000000	         -0.00084065	          0.00000000	         -0.00000000	          0.00000000	          0.00000000	          0.26700310	          0.00000000	
          2.17300000	         -0.00000000	         -0.00000000	          0.00000000	          0.00000000	          0.00000000	          0.00000000	         -1.14457056	         -5.19887627	         -0.19328860	         -0.00652725	          0.00000000	         -0.00105905	          0.00000000	         -0.00000000	          0.00000000	          0.00000000	          0.26241798	          0.00000000	
          2.17400000	         -0.00000000	         -0.00000000	          0.00000000	          0.00000000	          0.00000000	          0.00000000	         -1.11643043	         -5.07143553	         -0.19836270	         -0.00793354	          0.00000000	         -0.00125487	          0.00000000	         -0.00000000	          0.00000000	          0.00000000	          0.25723109	          0.00000000	
          2.17500000	         -0.00000000	         -0.00000000	          0.00000000	          0.00000000	          0.00000000	          0.00000000	         -1.08646416	         -4.93566655	         -0.20225581	         -0.00919029	          0.00000000	         -0.00142931	          0.00000000	         -0.00000000	          0.00000000	          0.00000000	          0.25151320	          0.00000000	
          2.17600000	         -0.00000000	         -0.00000000	          0.00000000	          0.00000000	          0.00000000	          0.00000000	         -1.05494026	         -4.79279047	         -0.20505364	         -0.01030545	          0.00000000	         -0.00158351	          0.00000000	         -0.00000000	          0.00000000	          0.00000000	          0.24533105	          0.00000000	
          2.17700000	         -0.00000000	         -0.00000000	          0.00000000	          0.00000000	          0.00000000	          0.00000000	         -1.02211027	         -4.64395148	         -0.20683873	         -0.01128686	          0.00000000	         -0.00171862	          0.00000000	         -0.00000000	          0.00000000	          0.00000000	          0.23874749	          0.00000000	
          2.17800000	         -0.00000000	         -0.00000000	          0.00000000	          0.00000000	          0.00000000	          0.00000000	         -0.98820931	         -4.49021899	         -0.20769045	         -0.01214217	          0.00000000	         -0.00183574	          0.00000000	         -0.00000000	          0.00000000	          0.00000000	          0.23182152	          0.00000000	
          2.17900000	         -0.00000000	         -0.00000000	          0.00000000	          0.00000000	          0.00000000	          0.00000000	         -0.95345653	         -4.33258998	         -0.20768494	         -0.01287888	          0.00000000	         -0.00193597	          0.00000000	         -0.00000000	          0.00000000	          0.00000000	          0.22460842	          0.00000000	
          2.18000000	         -0.00000000	         -0.00000000	          0.00000000	          0.00000000	          0.00000000	          0.00000000	         -0.91805569	         -4.17199139	         -0.20689511	         -0.01350428	          0.00000000	         -0.00202036	          0.00000000	         -0.00000000	          0.00000000	          0.00000000	          0.21715987	          0.00000000	
          2.18100000	         -0.00000000	         -0.00000000	          0.00000000	          0.00000000	          0.00000000	          0.00000000	         -0.88219566	         -4.00928258	         -0.20539062	         -0.01402548	          0.00000000	         -0.00208995	          0.00000000	         -0.00000000	          0.00000000	          0.00000000	          0.20952403	          0.00000000	
          2.18200000	         -0.00000000	         -0.00000000	          0.00000000	          0.00000000	          0.00000000	          0.00000000	         -0.84605099	         -3.84525781	         -0.20323793	         -0.01444937	          0.00000000	         -0.00214571	          0.00000000	         -0.00000000	          0.00000000	          0.00000000	          0.20174568	          0.00000000	
          2.18300000	         -0.00000000	         -0.00000000	          0.00000000	          0.00000000	          0.00000000	          0.00000000	         -0.80978246	         -3.68064877	         -0.20050028	         -0.01478261	          0.00000000	         -0.00218863	          0.00000000	         -0.00000000	          0.00000000	          0.00000000	          0.19386632	          0.00000000	
          2.18400000	         -0.00000000	         -0.00000000	          0.00000000	          0.00000000	          0.00000000	          0.00000000	         -0.77353765	         -3.51612716	         -0.19723775	         -0.01503166	          0.00000000	         -0.00221963	          0.00000000	         -0.00000000	          0.00000000	          0.00000000	          0.18592433	          0.00000000	
          2.18500000	         -0.00000000	          0.00000000	          0.00000000	          0.00000000	          0.00000000	          0.00000000	         -0.73745150	         -3.35230723	         -0.19350730	         -0.01520274	          0.00000000	         -0.00223961	          0.00000000	         -0.00000000	          0.00000000	          0.00000000	          0.17795503	          0.00000000	
          2.18600000	         -0.00000000	          0.00000000	          0.00000000	          0.00000000	          0.00000000	          0.00000000	         -0.70164689	         -3.18974837	         -0.18936281	         -0.01530182	          0.00000000	         -0.00224942	          0.00000000	         -0.00000000	          0.00000000	          0.00000000	          0.16999086	          0.00000000	
          2.18700000	         -0.00000000	          0.00000000	          0.00000000	          0.00000000	          0.00000000	          0.00000000	         -0.66623518	         -3.02895763	         -0.18485514	         -0.01533465	          0.00000000	         -0.00224991	          0.00000000	         -0.00000000	          0.00000000	          0.00000000	          0.16206149	          0.00000000	
          2.18800000	         -0.00000000	          0.00000000	          0.00000000	          0.00000000	          0.00000000	          0.00000000	         -0.63131677	         -2.87039225	         -0.18003221	         -0.01530675	          0.00000000	         -0.00224184	          0.00000000	         -0.00000000	          0.00000000	          0.00000000	          0.15419391	          0.00000000	
          2.18900000	          0.00000000	          0.00000000	          0.00000000	          0.00000000	          0.00000000	          0.00000000	         -0.59698167	         -2.71446222	         -0.17493905	         -0.01522338	          0.00000000	         -0.00222599	          0.00000000	         -0.00000000	          0.00000000	          0.00000000	          0.14641260	          0.00000000	
          2.19000000	          0.00000000	          0.00000000	          0.00000000	          0.00000000	          0.00000000	          0.00000000	         -0.56331003	         -2.56153269	         -0.16961787	         -0.01508957	          0.00000000	         -0.00220308	          0.00000000	         -0.00000000	          0.00000000	          0.00000000	          0.13873963	          0.00000000	
          2.19100000	          0.00000000	          0.00000000	         -0.00000000	          0.00000000	          0.00000000	          0.00000000	         -0.53037268	         -2.41192643	         -0.16410818	         -0.01491012	          0.00000000	         -0.00217379	          0.00000000	         -0.00000000	          0.00000000	          0.00000000	          0.13119479	          0.00000000	
          2.19200000	          0.00000000	          0.00000000	         -0.00000000	          0.00000000	          0.00000000	          0.00000000	         -0.49823164	         -2.26592621	         -0.15844681	         -0.01468958	          0.00000000	         -0.00213878	          0.00000000	         -0.00000000	          0.00000000	          0.00000000	          0.12379568	          0.00000000	
          2.19300000	          0.00000000	          0.00000000	         -0.00000000	          0.00000000	          0.00000000	          0.00000000	         -0.46694066	         -2.12377713	         -0.15266807	         -0.01443229	          0.00000000	         -0.00209866	          0.00000000	         -0.00000000	          0.00000000	          0.00000000	          0.11655789	          0.00000000	
          2.19400000	          0.00000000	          0.00000000	         -0.00000000	          0.00000000	          0.00000000	          0.00000000	         -0.43654572	         -1.98568889	         -0.14680376	         -0.01414234	          0.00000000	         -0.00205402	          0.00000000	         -0.00000000	          0.00000000	          0.00000000	          0.10949503	          0.00000000	
